<svg width="20" height="20" viewBox="0 0 20 20" fill="none" xmlns="http://www.w3.org/2000/svg">
<path d="M9.33594 14.7871C9.70312 15.1359 10.2969 15.1359 10.6602 14.7871L14.1953 11.4287C14.5625 11.0799 14.5625 10.5158 14.1953 10.1707C13.8281 9.82188 13.2344 9.82188 12.8711 10.1707L10.9375 12.0076V2.28125C10.9375 1.7877 10.5195 1.39062 10 1.39062C9.48047 1.39062 9.0625 1.7877 9.0625 2.28125V12.0076L7.12891 10.1707C6.76172 9.82188 6.16797 9.82188 5.80469 10.1707C5.4375 10.5195 5.4375 11.0836 5.80469 11.4287L9.33594 14.7871Z" fill="#1E0606"/>
<path d="M18.125 9.10938C17.6055 9.10938 17.1875 9.50645 17.1875 10V16.8281H2.8125V10C2.8125 9.50645 2.39453 9.10938 1.875 9.10938C1.35547 9.10938 0.9375 9.50645 0.9375 10V17.125C0.9375 17.9451 1.63672 18.6094 2.5 18.6094H17.5C18.3633 18.6094 19.0625 17.9451 19.0625 17.125V10C19.0625 9.50645 18.6445 9.10938 18.125 9.10938Z" fill="#1E0606"/>
</svg>
