<svg width="41" height="42" viewBox="0 0 41 42" fill="none" xmlns="http://www.w3.org/2000/svg">
<path d="M20.4247 4.16748C17.7163 4.16748 15.1187 5.24342 13.2035 7.1586C11.2883 9.07378 10.2124 11.6713 10.2124 14.3798C10.2124 16.795 10.7264 18.3762 12.1272 20.1242L20.4247 29.6983L28.7222 20.1242C30.123 18.3762 30.6371 16.795 30.6371 14.3798C30.6371 11.6713 29.5611 9.07378 27.6459 7.1586C25.7308 5.24342 23.1332 4.16748 20.4247 4.16748V4.16748Z" stroke="#1E0606" stroke-width="2.18836" stroke-linecap="round" stroke-linejoin="round"/>
<path d="M8.51046 26.5381C5.35996 27.7755 3.4043 29.4963 3.4043 31.4009C3.4043 35.1624 11.0244 38.2091 20.4248 38.2091C29.8253 38.2091 37.4454 35.1624 37.4454 31.4009C37.4454 29.4963 35.4897 27.7755 32.3392 26.5381" stroke="#1E0606" stroke-width="2.18836" stroke-linecap="round" stroke-linejoin="round"/>
<path d="M20.4247 16.0823C21.3647 16.0823 22.1268 15.3203 22.1268 14.3803C22.1268 13.4403 21.3647 12.6782 20.4247 12.6782C19.4847 12.6782 18.7227 13.4403 18.7227 14.3803C18.7227 15.3203 19.4847 16.0823 20.4247 16.0823Z" stroke="#1E0606" stroke-width="2.18836" stroke-linecap="round" stroke-linejoin="round"/>
</svg>
