<svg width="84" height="86" viewBox="0 0 84 86" fill="none" xmlns="http://www.w3.org/2000/svg">
<path d="M57.3872 85.8406C46.9732 85.8406 37.6194 79.6784 33.5674 70.1722C33.0183 68.8947 33.6242 67.4106 34.9118 66.8846C36.1993 66.3585 37.6952 66.9409 38.2254 68.2184C41.4821 75.8835 49.0181 80.8244 57.3872 80.8244C65.7564 80.8244 73.2924 75.8835 76.5492 68.2184C77.0982 66.9409 78.5752 66.3585 79.8627 66.8846C81.1503 67.4294 81.7562 68.8947 81.2071 70.1722C77.1551 79.6784 67.8013 85.8406 57.3872 85.8406Z" fill="#C60C30"/>
<path d="M62.855 70.6534H51.7626C50.8699 70.6534 50.1481 69.9383 50.1481 69.0538C50.1481 68.1694 50.8699 67.4542 51.7626 67.4542H62.855C63.7477 67.4542 64.4695 68.1694 64.4695 69.0538C64.4695 69.9195 63.7477 70.6534 62.855 70.6534ZM80.7094 11.3365C81.5831 9.71805 82.0389 7.91147 82.0389 6.02959C82.0389 4.5429 81.716 2.99976 81.1842 1.7389C80.5763 0.27103 79.4748 -0.349992 77.2524 0.195754C71.4593 1.62599 63.4439 5.50266 57.4037 9.88745C51.2498 14.3663 45.9884 19.8426 41.7907 26.1657C41.012 27.3325 41.3539 28.8944 42.5315 29.666C42.9684 29.9483 43.4432 30.08 43.937 30.08C44.7728 30.08 45.5895 29.6849 46.0644 28.9321C53.4151 17.8478 64.2796 9.62394 76.8916 5.55912C76.8916 5.70966 76.9106 5.8414 76.9106 5.99195C76.9106 8.57015 75.2771 10.8472 72.8838 11.8446C66.065 14.8932 59.892 19.3345 54.8586 24.886C53.9089 25.9211 54.0038 27.5207 55.0486 28.4616C55.5424 28.8944 56.1501 29.1202 56.758 29.1202C57.4607 29.1202 58.1445 28.838 58.6573 28.2923C63.6907 22.7595 69.9398 18.45 76.8535 15.7025C76.8916 16.0035 76.9296 16.3047 76.9296 16.6246C76.9296 18.7887 75.7899 20.8024 73.9665 21.9315C71.0984 23.4558 68.4012 25.3 65.9321 27.4266C64.8684 28.3487 64.7545 29.9483 65.6661 31.0022C66.179 31.5855 66.8818 31.8678 67.6035 31.8678C68.1923 31.8678 68.8001 31.6608 69.275 31.2468C71.4403 29.3838 73.8145 27.7653 76.3407 26.4103C76.3977 26.3727 76.4547 26.3351 76.5117 26.3162C76.5877 26.2786 76.6446 26.241 76.7206 26.2033C76.8726 26.7303 76.9486 27.276 76.9486 27.8406C76.9486 29.666 76.1508 31.3785 74.7642 32.5829C73.7006 33.5051 73.5866 35.1047 74.5173 36.1585C75.0301 36.7419 75.7329 37.0242 76.4547 37.0242C77.0435 37.0242 77.6513 36.8171 78.1262 36.4032C80.6333 34.2578 82.0769 31.1339 82.0769 27.8406C82.0769 25.8458 81.5641 23.9262 80.5763 22.2138C81.5641 20.5013 82.0769 18.5629 82.0769 16.6058C82.0389 14.7803 81.5831 12.9737 80.7094 11.3365Z" fill="#C60C30"/>
<path d="M58.6821 33.8931C53.7502 33.3444 48.2682 33.8364 42.4259 35.3502C37.1336 36.7127 31.5568 38.9077 25.8472 41.8786C20.574 44.6034 15.2817 47.9339 10.1412 51.7563C6.74578 54.273 3.61594 56.8654 0.561983 59.6092C-0.538202 60.6122 0.106734 62.0692 1.37764 62.0692H83.3794C84.0812 45.7199 73.2121 35.5015 58.6821 33.8931ZM22.6985 56.9789C32.3915 54.4433 40.9843 53.1187 47.5854 53.1187C52.4035 53.1187 56.1972 54.3866 59.0804 56.9789H22.6985ZM63.4622 56.9789C62.0017 55.0867 60.2755 53.554 58.3027 52.4375C55.3436 50.7533 51.7396 49.8829 47.5854 49.8829C43.6779 49.8829 39.1823 50.3181 34.1745 51.1696C30.2101 51.8509 25.9042 52.797 21.4086 53.9703C17.6149 54.9731 14.3143 55.9761 11.9432 56.733C17.1596 52.7592 22.6795 49.2395 28.1804 46.4011C37.8924 41.3677 46.9784 38.7563 54.6797 38.7563C55.8558 38.7563 57.0128 38.8131 58.113 38.9456C63.6139 39.5511 68.2423 41.5758 71.6757 44.6413H62.1533C61.2618 44.6413 60.5411 45.3603 60.5411 46.2498C60.5411 47.1391 61.2618 47.8582 62.1533 47.8582H74.5589C76.3989 50.4695 77.6129 53.535 78.0302 56.9412H63.4622V56.9789Z" fill="#C60C30"/>
</svg>
