<svg width="106" height="111" viewBox="0 0 106 111" fill="none" xmlns="http://www.w3.org/2000/svg">
<path d="M72.7984 110.061C59.5877 110.061 47.7219 102.21 42.5818 90.0986C41.8852 88.471 42.6538 86.5801 44.2872 85.9099C45.9205 85.2397 47.818 85.9817 48.4906 87.6093C52.622 97.375 62.1817 103.67 72.7984 103.67C83.415 103.67 92.9748 97.375 97.1062 87.6093C97.8027 85.9817 99.6763 85.2397 101.31 85.9099C102.943 86.604 103.712 88.471 103.015 90.0986C97.8748 102.21 86.0092 110.061 72.7984 110.061Z" fill="#A20E3E"/>
<path d="M79.7341 90.7115H65.6628C64.5304 90.7115 63.6148 89.8004 63.6148 88.6735C63.6148 87.5467 64.5304 86.6355 65.6628 86.6355H79.7341C80.8665 86.6355 81.7821 87.5467 81.7821 88.6735C81.7821 89.7764 80.8665 90.7115 79.7341 90.7115ZM102.383 15.1389C103.492 13.0769 104.07 10.7753 104.07 8.37766C104.07 6.48355 103.66 4.51751 102.985 2.91112C102.214 1.04098 100.817 0.249772 97.9979 0.945079C90.649 2.76726 80.4811 7.70633 72.8189 13.2928C65.0123 18.999 58.338 25.9761 53.013 34.032C52.0252 35.5186 52.4589 37.5086 53.9527 38.4916C54.507 38.8512 55.1093 39.0191 55.7357 39.0191C56.796 39.0191 57.832 38.5156 58.4344 37.5566C67.7591 23.4346 81.5412 12.957 97.5401 7.77826C97.5401 7.97006 97.5642 8.1379 97.5642 8.32971C97.5642 11.6145 95.492 14.5156 92.4561 15.7863C83.8061 19.6704 75.9754 25.3287 69.5903 32.4016C68.3855 33.7204 68.5059 35.7584 69.8312 36.9571C70.4576 37.5086 71.2286 37.7963 71.9997 37.7963C72.8912 37.7963 73.7586 37.4367 74.4091 36.7414C80.7942 29.6924 88.7215 24.2019 97.4919 20.7014C97.5401 21.0849 97.5883 21.4686 97.5883 21.8762C97.5883 24.6334 96.1426 27.1989 93.8295 28.6374C90.1912 30.5795 86.7697 32.9291 83.6374 35.6385C82.2881 36.8132 82.1436 38.8512 83.3001 40.1939C83.9507 40.9371 84.8422 41.2968 85.7578 41.2968C86.5047 41.2968 87.2757 41.0331 87.8781 40.5056C90.6249 38.132 93.6367 36.07 96.8413 34.3437C96.9137 34.2958 96.9859 34.2479 97.0582 34.2238C97.1546 34.1759 97.2268 34.128 97.3232 34.08C97.516 34.7513 97.6124 35.4466 97.6124 36.166C97.6124 38.4916 96.6004 40.6734 94.8415 42.2079C93.4922 43.3827 93.3476 45.4207 94.5282 46.7633C95.1788 47.5066 96.0703 47.8662 96.9859 47.8662C97.7328 47.8662 98.5039 47.6025 99.1062 47.0751C102.287 44.3418 104.118 40.3617 104.118 36.166C104.118 33.6244 103.467 31.1789 102.214 28.9971C103.467 26.8153 104.118 24.3457 104.118 21.8522C104.07 19.5265 103.492 17.2248 102.383 15.1389Z" fill="#A20E3E"/>
<path d="M74.441 43.8774C68.1847 43.1782 61.2306 43.8051 53.8193 45.7337C47.1058 47.4696 40.0313 50.2662 32.7884 54.0512C26.099 57.5228 19.3855 61.766 12.8646 66.6359C8.55734 69.8423 4.587 73.1452 0.712902 76.6409C-0.682735 77.9187 0.135397 79.7751 1.7476 79.7751H105.771C106.661 58.9452 92.8731 45.9266 74.441 43.8774ZM28.7941 73.2898C41.0901 70.0593 51.9906 68.3716 60.3644 68.3716C66.4763 68.3716 71.2889 69.987 74.9463 73.2898H28.7941ZM80.5049 73.2898C78.6521 70.879 76.4623 68.9262 73.9598 67.5038C70.206 65.3581 65.6341 64.2491 60.3644 64.2491C55.4075 64.2491 49.7046 64.8036 43.352 65.8885C38.3229 66.7564 32.8607 67.9618 27.1578 69.4566C22.3453 70.7343 18.1584 72.0121 15.1505 72.9764C21.7677 67.9137 28.77 63.4294 35.7482 59.8132C48.0683 53.4003 59.5944 50.0732 69.3638 50.0732C70.8557 50.0732 72.3235 50.1456 73.7192 50.3144C80.6973 51.0859 86.5686 53.6654 90.924 57.571H78.8445C77.7135 57.571 76.7992 58.4871 76.7992 59.6203C76.7992 60.7534 77.7135 61.6695 78.8445 61.6695H94.5816C96.9156 64.9964 98.4556 68.902 98.985 73.2417H80.5049V73.2898Z" fill="#A20E3E"/>
</svg>
