<svg width="34" height="34" viewBox="0 0 34 34" fill="none" xmlns="http://www.w3.org/2000/svg">
<path fill-rule="evenodd" clip-rule="evenodd" d="M33.6606 16.7766C33.6606 25.8967 26.1835 33.291 16.9614 33.291C7.73927 33.291 0.262207 25.8967 0.262207 16.7766C0.262207 7.65653 7.73927 0.262207 16.9614 0.262207C26.1835 0.262207 33.6606 7.65653 33.6606 16.7766ZM17.5598 12.454C15.9358 13.1214 12.6892 14.5045 7.82137 16.6018C7.03095 16.9128 6.61625 17.217 6.57868 17.5142C6.51466 18.0179 7.15201 18.2161 8.01759 18.4845C8.13587 18.5216 8.25833 18.5588 8.38358 18.6001C9.23663 18.8739 10.3833 19.1946 10.9789 19.207C11.5202 19.218 12.1242 18.9978 12.7908 18.5464C17.3385 15.5091 19.6861 13.9747 19.8337 13.9416C19.938 13.9182 20.0828 13.888 20.1802 13.9747C20.2776 14.06 20.2678 14.2224 20.2581 14.2664C20.1941 14.532 17.6976 16.8289 16.4034 18.0179C15.9998 18.3881 15.7145 18.651 15.6561 18.7115C15.5253 18.845 15.3917 18.973 15.2636 19.0955C14.4704 19.8497 13.8776 20.4166 15.297 21.3415C15.9789 21.786 16.5244 22.1534 17.0685 22.5195C17.6628 22.92 18.2556 23.319 19.0237 23.8172C19.2186 23.9438 19.405 24.0746 19.5873 24.2026C20.279 24.6911 20.901 25.1288 21.6692 25.0599C22.1145 25.0187 22.5765 24.6044 22.8103 23.3672C23.3628 20.4414 24.451 14.1054 24.7029 11.4934C24.7182 11.2765 24.7089 11.0586 24.675 10.8438C24.6548 10.6703 24.5694 10.5107 24.4357 10.3965C24.2367 10.2355 23.9277 10.2011 23.7886 10.2039C23.161 10.2149 22.198 10.5465 17.5598 12.454Z" fill="#88173B"/>
</svg>
