<svg width="38" height="38" viewBox="0 0 38 38" fill="none" xmlns="http://www.w3.org/2000/svg">
<path fill-rule="evenodd" clip-rule="evenodd" d="M29.7895 18.7742C29.7895 24.7242 24.9114 29.5483 18.8947 29.5483C12.8781 29.5483 8 24.7242 8 18.7742C8 12.8241 12.8781 8 18.8947 8C24.9114 8 29.7895 12.8241 29.7895 18.7742ZM19.2851 15.954C18.2256 16.3895 16.1075 17.2918 12.9317 18.6601C12.416 18.8631 12.1454 19.0615 12.1209 19.2554C12.0792 19.584 12.495 19.7133 13.0597 19.8884C13.1369 19.9126 13.2168 19.9369 13.2985 19.9638C13.855 20.1425 14.6031 20.3517 14.9917 20.3598C15.3449 20.367 15.7389 20.2233 16.1738 19.9288C19.1408 17.9473 20.6724 16.9462 20.7686 16.9246C20.8367 16.9093 20.9311 16.8896 20.9947 16.9462C21.0583 17.0018 21.0519 17.1078 21.0455 17.1365C21.0038 17.3098 19.375 18.8083 18.5307 19.584C18.2674 19.8256 18.0813 19.997 18.0431 20.0365C17.9578 20.1236 17.8706 20.2071 17.7871 20.287C17.2696 20.7791 16.8828 21.149 17.8089 21.7523C18.2538 22.0423 18.6097 22.2821 18.9646 22.5209C19.3523 22.7822 19.7391 23.0425 20.2402 23.3676C20.3673 23.4502 20.489 23.5355 20.6079 23.619C21.0592 23.9377 21.465 24.2232 21.9661 24.1783C22.2567 24.1514 22.5581 23.8811 22.7106 23.074C23.0711 21.1651 23.781 17.0315 23.9454 15.3273C23.9554 15.1858 23.9493 15.0437 23.9272 14.9036C23.914 14.7904 23.8583 14.6862 23.771 14.6118C23.6412 14.5067 23.4397 14.4843 23.3489 14.4861C22.9394 14.4932 22.3111 14.7096 19.2851 15.954Z" fill="#88173B"/>
</svg>
