<svg width="31" height="18" viewBox="0 0 31 18" fill="none" xmlns="http://www.w3.org/2000/svg">
<path fill-rule="evenodd" clip-rule="evenodd" d="M29.5674 1.25895C29.7761 0.57998 29.5674 0.0800781 28.5677 0.0800781H25.2669C24.4269 0.0800781 24.0396 0.511586 23.8296 0.987861C23.8296 0.987861 22.1509 4.96221 19.7731 7.54379C19.0035 8.2924 18.6539 8.52992 18.2339 8.52992C18.0239 8.52992 17.7083 8.2924 17.7083 7.61219V1.25895C17.7083 0.443191 17.4769 0.0800781 16.7778 0.0800781H11.587C11.0627 0.0800781 10.7471 0.458114 10.7471 0.817496C10.7471 1.58973 11.9366 1.7688 12.0586 3.94251V8.66546C12.0586 9.70133 11.8662 9.8891 11.4462 9.8891C10.3271 9.8891 7.60468 5.8961 5.98885 1.32735C5.67574 0.438217 5.35887 0.0800781 4.51512 0.0800781H1.21179C0.268696 0.0800781 0.0800781 0.511586 0.0800781 0.987861C0.0800781 1.83595 1.19921 6.04906 5.29222 11.6214C8.0209 15.4266 11.8624 17.4896 15.3619 17.4896C17.4606 17.4896 17.7196 17.032 17.7196 16.2423V13.366C17.7196 12.4495 17.9183 12.2667 18.5835 12.2667C19.0739 12.2667 19.9126 12.5055 21.8717 14.3397C24.11 16.5147 24.4784 17.4896 25.7384 17.4896H29.0392C29.9823 17.4896 30.4551 17.032 30.1835 16.1267C29.8842 15.2264 28.8154 13.9194 27.3982 12.3687C26.6287 11.4858 25.4743 10.5345 25.1235 10.0582C24.6344 9.44765 24.7739 9.17531 25.1235 8.63189C25.1235 8.63189 29.1474 3.12799 29.5661 1.25895H29.5674Z" fill="#88173B"/>
</svg>
