<svg width="38" height="30" viewBox="0 0 38 30" fill="none" xmlns="http://www.w3.org/2000/svg">
<path fill-rule="evenodd" clip-rule="evenodd" d="M29.2901 9.34042C29.4408 8.85019 29.2901 8.48926 28.5684 8.48926H26.1851C25.5787 8.48926 25.299 8.80081 25.1474 9.14469C25.1474 9.14469 23.9354 12.0142 22.2185 13.8781C21.6629 14.4186 21.4105 14.5901 21.1073 14.5901C20.9557 14.5901 20.7278 14.4186 20.7278 13.9275V9.34042C20.7278 8.75143 20.5607 8.48926 20.0559 8.48926H16.3081C15.9296 8.48926 15.7017 8.7622 15.7017 9.02168C15.7017 9.57924 16.5605 9.70853 16.6486 11.278V14.688C16.6486 15.4359 16.5097 15.5715 16.2065 15.5715C15.3984 15.5715 13.4328 12.6885 12.2662 9.3898C12.0401 8.74784 11.8113 8.48926 11.2021 8.48926H8.81711C8.13618 8.48926 8 8.80081 8 9.14469C8 9.75702 8.80803 12.7989 11.7632 16.8222C13.7334 19.5696 16.507 21.0591 19.0336 21.0591C20.5489 21.0591 20.7359 20.7287 20.7359 20.1586V18.0819C20.7359 17.4201 20.8794 17.2882 21.3597 17.2882C21.7137 17.2882 22.3193 17.4606 23.7338 18.7849C25.3499 20.3552 25.6159 21.0591 26.5256 21.0591H28.9088C29.5897 21.0591 29.9311 20.7287 29.735 20.0751C29.5189 19.425 28.7472 18.4814 27.724 17.3618C27.1684 16.7243 26.3349 16.0375 26.0816 15.6936C25.7285 15.2527 25.8292 15.0561 26.0816 14.6638C26.0816 14.6638 28.9869 10.6899 29.2892 9.34042H29.2901Z" fill="#88173B"/>
</svg>
